<?xml version="1.0" encoding="utf-8"?>
<!-- Generator: Adobe Illustrator 27.5.0, SVG Export Plug-In . SVG Version: 6.00 Build 0)  -->
<svg version="1.1" xmlns="http://www.w3.org/2000/svg" xmlns:xlink="http://www.w3.org/1999/xlink" x="0px" y="0px"
	 viewBox="0 0 500 500" style="enable-background:new 0 0 500 500;" xml:space="preserve">
<g id="BACKGROUND">
	<rect style="fill:#FFFFFF;" width="500" height="500"/>
	<g>
		<path style="opacity:0.5;fill:#F5CBD1;" d="M106.128,97.724c-15.084,12.831,1.643,258.723,23.368,266.13
			c21.725,7.407,249.269,2.164,259.795-16.567c10.525-18.732,19.458-180.788-3.347-202.954
			C363.138,122.166,140.336,68.625,106.128,97.724z"/>
		<ellipse style="opacity:0.5;fill:#F5CBD1;" cx="200.199" cy="407.3" rx="70.306" ry="16.323"/>
		<ellipse style="opacity:0.5;fill:#F5CBD1;" cx="401.181" cy="383.056" rx="64.533" ry="16.323"/>
	</g>
</g>
<g id="OBJECTS">
	<g>
		<g>
			<g>
				<g>
					<path style="fill:#FFBC36;" d="M199.04,378.566c0,0-4.86-0.904-3.504-4.747c1.356-3.843,7.912-8.251,14.468-7.686
						c0,0,6.33-8.251,11.642-7.234s6.104,7.347,2.826,11.642c0,0,8.93,6.669,7.234,13.564c-1.695,6.895-23.624,22.267-49.056,23.172
						c-25.432,0.904-25.884-24.641-16.05-29.275C176.434,373.367,188.641,382.296,199.04,378.566z"/>
					<g style="opacity:0.5;">
						<g>
							<path style="fill:#FFFFFF;" d="M197.846,381.044c-5.046,0.822-10.615,0.532-15.533-0.77
								c-3.598-0.952-7.322-2.11-11.075-1.372c-5.206,1.022-10.048,7.312-7.631,12.633c0.323,0.712,1.443,0.334,1.43-0.387
								c-0.056-3.116,0.047-5.809,2.402-8.184c2.913-2.939,7.176-2.627,10.9-1.756c3.033,0.71,5.982,1.714,9.111,1.93
								c3.745,0.258,6.973-0.675,10.583-1.416C198.481,381.63,198.285,380.973,197.846,381.044L197.846,381.044z"/>
						</g>
					</g>
					<path style="opacity:0.6;fill:#FFBC36;" d="M182.65,407.276c25.432-0.904,47.361-16.277,49.056-23.172
						c1.695-6.895-7.234-13.564-7.234-13.564c3.278-4.295,2.487-10.625-2.826-11.642s-11.642,7.234-11.642,7.234
						c-6.556-0.565-13.112,3.843-14.468,7.686c-1.356,3.843,3.504,4.747,3.504,4.747c-1.193,0.428-2.41,0.683-3.644,0.817
						c2.298,0.419,5.755,0.645,9.655-0.481c0,0-7.854-1.504-6.481-4.723c1.373-3.219,11.803-6.309,11.803-6.309
						s4.138-4.78,7.735-5.98c2.912-0.971,5.165-0.645,5.446,2.75c0.31,3.75-4.534,9.855-4.534,9.855s4.239-0.554,5.386,0.642
						c1.147,1.196,6.595,6.116,1.721,10.847c-4.875,4.731-27.324,19.782-47.539,17.488c-8.73-0.991-14.601-4.979-17.935-13.962
						C160.606,398.054,166.738,407.842,182.65,407.276z"/>
					<g>
						
							<path style="fill:none;stroke:#280606;stroke-width:1.5;stroke-linecap:round;stroke-linejoin:round;stroke-miterlimit:10;" d="
							M199.04,378.566c0,0-4.86-0.904-3.504-4.747c1.356-3.843,7.912-8.251,14.468-7.686c0,0,6.33-8.251,11.642-7.234
							s6.104,7.347,2.826,11.642c0,0,8.93,6.669,7.234,13.564c-1.695,6.895-23.624,22.267-49.056,23.172
							c-25.432,0.904-25.884-24.641-16.05-29.275C176.434,373.367,188.641,382.296,199.04,378.566z"/>
						<g>
							<g>
								<g>
									<path style="fill:#280606;" d="M217.647,375.443c3.225-1.243,6.358-2.945,8.326-5.907c0.419-0.632-0.553-1.396-1.058-0.817
										c-2.139,2.452-4.349,4.84-7.436,6.114C217.111,374.985,217.263,375.591,217.647,375.443L217.647,375.443z"/>
								</g>
							</g>
							<g>
								<g>
									<path style="fill:#280606;" d="M205.866,378.492c-1.264-0.074-2.527-0.243-3.794-0.325c-1.244-0.08-2.778-0.523-4.003-0.35
										c-0.43,0.061-0.497,0.65-0.242,0.917c0.824,0.86,2.986,0.717,4.068,0.761c1.349,0.054,2.756,0.099,4.069-0.278
										C206.375,379.1,206.277,378.516,205.866,378.492L205.866,378.492z"/>
								</g>
							</g>
						</g>
					</g>
				</g>
				<g>
					<path style="fill:#280606;" d="M210.457,373.466c-0.534,0-1.077-0.086-1.61-0.267c-1.37-0.467-13.458-4.82-16.124-13.944
						c-0.907-3.104-1.064-7.964,3.344-13.481c9.813-12.286,41.853-17.365,45.474-17.903c2.73-0.401,5.274,1.477,5.681,4.208
						c0.407,2.731-1.477,5.275-4.208,5.683c-12.181,1.818-33.577,7.296-39.133,14.253c-2.087,2.613-1.691,3.979-1.561,4.429
						c0.859,2.969,6.334,6.107,9.763,7.294c2.605,0.902,3.995,3.744,3.1,6.351C214.47,372.161,212.533,373.466,210.457,373.466z"/>
				</g>
			</g>
			<g>
				<g>
					<path style="fill:#FFBC36;" d="M380.71,353.929c-2.48,1.129-11.84-1.128-14.695,2.653c-2.855,3.781,3.514,7.844,3.514,7.844
						s-4.064,7.798-0.549,12.85c3.514,5.052,45.029,13.728,58.757,9.994c13.728-3.734,18.451-13.179,11.092-24.381
						c-7.358-11.202-18.121-9.335-25.48-5.162c-7.358,4.173-11.642,6.26-15.376,5.052c0,0,5.052-7.578,0-12.191
						C392.922,345.976,388.816,350.24,380.71,353.929z"/>
					<path style="opacity:0.6;fill:#FFBC36;" d="M433.113,356.991c6.337,9.658,3.074,23.651-6.004,26.417
						c-11.184,3.408-39.932-1.573-48.233-4.107c-8.301-2.534-8.825-5.068-8.214-9c0.612-3.932,3.402-4.06,3.402-4.06
						c-1.841-1.042-4.644-3.327-4.576-7.219c0.068-3.891,6.144-3.482,10.923-2.439c0,0,4.825-0.486,7.377-2.884
						c2.553-2.397,7.602-3.32,9.699,0.699s-2.995,11.317-2.995,11.317c2.191-0.585,4.066-1.451,5.608-2.598
						c-0.737-0.007-1.441-0.116-2.126-0.337c0,0,5.052-7.578,0-12.191c-5.052-4.613-9.158-0.348-17.264,3.34
						c-2.48,1.129-11.84-1.128-14.695,2.653c-2.855,3.781,3.514,7.844,3.514,7.844s-4.064,7.798-0.549,12.85
						c3.514,5.052,45.029,13.728,58.757,9.994c13.728-3.734,18.451-13.179,11.092-24.382
						C437.086,360.234,435.149,358.321,433.113,356.991z"/>
					<g>
						<g>
							<g>
								<path style="fill:#280606;" d="M393.259,366.599c1.445-0.181,2.658-0.897,3.742-1.852c0.873-0.769,2.413-2.153,2.202-3.421
									c-0.046-0.274-0.432-0.502-0.692-0.393c-0.572,0.24-0.694,0.509-1.02,1.027c-0.386,0.612-0.843,1.174-1.353,1.686
									c-0.933,0.935-2.046,1.651-3.081,2.464C392.869,366.256,393.019,366.629,393.259,366.599L393.259,366.599z"/>
							</g>
						</g>
						<g>
							<g>
								<path style="fill:#280606;" d="M375.291,365.814c-1.51-0.183-3.079-0.598-4.4-1.371c-0.57-0.334-1.07-0.933-1.71-1.114
									c-0.493-0.139-0.923,0.328-0.806,0.806c0.2,0.824,1.277,1.383,1.962,1.746c1.557,0.825,3.211,1.075,4.954,0.928
									C375.94,366.756,375.922,365.891,375.291,365.814L375.291,365.814z"/>
							</g>
						</g>
						
							<path style="fill:none;stroke:#280606;stroke-width:1.5;stroke-linecap:round;stroke-linejoin:round;stroke-miterlimit:10;" d="
							M380.71,353.929c-2.48,1.129-11.84-1.128-14.695,2.653c-2.855,3.781,3.514,7.844,3.514,7.844s-4.064,7.798-0.549,12.85
							c3.514,5.052,45.029,13.728,58.757,9.994c13.728-3.734,18.451-13.179,11.092-24.381c-7.358-11.202-18.121-9.335-25.48-5.162
							c-7.358,4.173-11.642,6.26-15.376,5.052c0,0,5.052-7.578,0-12.191C392.922,345.976,388.816,350.24,380.71,353.929z"/>
					</g>
					<g style="opacity:0.5;">
						<g>
							<path style="fill:#FFFFFF;" d="M400.79,365.668c5.634,0.308,10.385-1.696,15.27-4.253c2.727-1.427,5.542-2.828,8.661-3.066
								c1.45-0.111,2.895,0.097,4.238,0.65c1.271,0.524,2.187,1.48,3.375,2.116c0.337,0.18,0.778-0.119,0.663-0.51
								c-1.463-4.978-9.384-4.129-12.969-2.795c-2.971,1.105-5.648,2.821-8.471,4.234c-3.467,1.735-7.043,2.493-10.826,3.186
								C400.473,365.278,400.551,365.655,400.79,365.668L400.79,365.668z"/>
						</g>
					</g>
				</g>
				<g>
					<path style="fill:#280606;" d="M383.329,362.513c-1.105,0-2.217-0.364-3.143-1.113
						c-44.393-35.923-107.538-34.442-108.175-34.422c-2.743,0.079-5.065-2.086-5.149-4.847c-0.084-2.76,2.086-5.065,4.846-5.149
						c2.738-0.074,67.521-1.59,114.769,36.645c2.146,1.737,2.478,4.886,0.741,7.032
						C386.231,361.879,384.786,362.513,383.329,362.513z"/>
				</g>
			</g>
			<g>
				<g>
					<path style="fill:#280606;" d="M98.967,331.524c-1.49,0-2.964-0.663-3.95-1.931c-1.695-2.18-1.303-5.32,0.877-7.016
						c1.271-0.989,31.62-24.203,75.198-23.071c2.761,0.07,4.941,2.366,4.87,5.127c-0.071,2.76-2.339,4.954-5.127,4.869
						c-40.028-1.002-68.518,20.748-68.801,20.968C101.121,331.18,100.04,331.524,98.967,331.524z"/>
				</g>
				<g>
					<path style="fill:#FFFFFF;" d="M70.071,324.537c0.317,1.587-3.742,5.037-11.971,10.375
						c-8.356,5.421-10.749,18.674-9.505,24.552c1.243,5.878,5.991,7.573,8.251,6.669c0,0,4.069,8.251,9.042,7.234
						c0,0,1.469,7.008,7.799,6.104c6.33-0.904,16.051-30.745,17.181-31.762c1.13-1.017,10.173-3.73,9.721-8.364
						c0,0,5.538-1.922,5.538-8.025s-4.182-13.674-10.06-15.823c-5.878-2.149-7.347,2.711-7.46,4.633c0,0-5.991-2.939-9.495,2.035
						c0,0-3.278-3.73-3.278-10.512c0-6.782-2.939-13.112-9.495-10.399c-6.556,2.713-10.017,9.711-6.782,16.051
						C62.384,322.841,69.506,321.711,70.071,324.537z"/>
					<path style="opacity:0.7;fill:#ABABB8;" d="M106.128,331.319c0-5.436-3.321-12.024-8.198-14.921
						c3.767,4.704,5.039,10.807,5.783,14.897c0.926,5.094-3.579,5.816-3.579,5.816s0.456,2.233-1.977,4.038s-9.03,4.269-9.03,4.269
						s-7.177,19.448-11.581,25.699c-4.404,6.251-7.751,6.599-9.74-1.7c-1.989-8.298,2.723-18.716,2.723-18.716
						c-4.938,4.936-6.638,14.859-6.87,17.406c-0.231,2.547-4.081,2.109-6.02-7.988c-1.939-10.097,5.338-17.505,5.338-17.505
						c-11.447,6.574-7.885,19.589-11.242,19.241c-1.196-0.124-2.317-1.483-3.266-3.179c0.039,0.268,0.075,0.543,0.126,0.787
						c1.243,5.878,5.991,7.573,8.251,6.669c0,0,4.069,8.251,9.043,7.234c0,0,1.469,7.008,7.799,6.104
						c6.33-0.904,16.05-30.745,17.181-31.762c1.13-1.017,10.173-3.73,9.721-8.364C100.589,339.344,106.128,337.422,106.128,331.319z
						"/>
					<g>
						<g>
							<g>
								<path style="fill:#280606;" d="M74.52,325.166c-0.808-0.867-1.885-1.359-2.971-1.797c-1.168-0.471-2.471-1.029-3.744-0.997
									c-0.478,0.012-0.683,0.67-0.248,0.917c1.048,0.596,2.304,0.813,3.438,1.213c1.115,0.393,2.199,0.876,3.381,1.014
									C74.563,325.538,74.629,325.283,74.52,325.166L74.52,325.166z"/>
							</g>
						</g>
						<g>
							<g>
								<path style="fill:#280606;" d="M80.706,323.548c-0.933-1.234-1.744-2.77-2.963-3.74c-0.21-0.167-0.545-0.019-0.47,0.274
									c0.394,1.538,1.692,2.86,2.752,3.991C80.354,324.424,81.008,323.946,80.706,323.548L80.706,323.548z"/>
							</g>
						</g>
						<g>
							<g>
								<path style="fill:#280606;" d="M92.123,325.002c-0.027-1.418-0.468-2.631-1.346-3.747c-0.607-0.772-2.057-2.298-3.147-1.863
									c-0.132,0.053-0.262,0.196-0.201,0.353c0.168,0.428,0.425,0.571,0.808,0.826c0.522,0.349,0.977,0.711,1.405,1.172
									c0.864,0.931,1.472,2.13,1.802,3.351C91.545,325.466,92.131,325.396,92.123,325.002L92.123,325.002z"/>
							</g>
						</g>
						<g>
							<g>
								<path style="fill:#280606;" d="M93.234,330.296c-3.399-1.355-6.789-0.642-9.648,1.611c-2.165,1.706-4.588,4.672-4.68,7.524
									c-0.022,0.683,0.825,0.771,1.168,0.316c1.629-2.152,2.27-4.594,4.488-6.398c2.369-1.927,5.562-2.768,8.588-2.432
									C93.533,330.96,93.535,330.416,93.234,330.296L93.234,330.296z"/>
							</g>
						</g>
						<g>
							<g>
								<path style="fill:#280606;" d="M99.235,336.29c0.548,1.659,0.558,3.242,0.789,4.947c0.04,0.297,0.479,0.306,0.611,0.08
									c0.961-1.66,0.526-3.859-0.436-5.433C99.897,335.39,99.042,335.705,99.235,336.29L99.235,336.29z"/>
							</g>
						</g>
						<g>
							<g>
								<path style="fill:#280606;" d="M80.488,350.334c-3.615-0.69-7.26-1.426-10.268-3.688c-3.276-2.464-4.091-5.432-4.953-9.204
									c-0.153-0.671-1.22-0.681-1.367,0c-0.795,3.68,1.928,7.696,4.686,9.876c3.308,2.615,7.629,3.814,11.8,3.764
									C80.801,351.077,80.923,350.417,80.488,350.334L80.488,350.334z"/>
							</g>
						</g>
						<g>
							<g>
								<path style="fill:#280606;" d="M58.369,368.065c-3.021-9.281-2.078-20.863,7.306-25.978
									c0.764-0.416,0.205-1.444-0.555-1.317c-5.01,0.838-8.158,7.46-9.278,11.828c-1.38,5.382-0.917,10.994,2.238,15.589
									C58.176,368.327,58.428,368.246,58.369,368.065L58.369,368.065z"/>
							</g>
						</g>
						<g>
							<g>
								<path style="fill:#280606;" d="M67.371,376.046c-2.76-8.727-0.582-19.736,5.383-26.66c0.762-0.885-0.509-2.179-1.293-1.293
									c-3.517,3.975-5.585,8.897-6.355,14.126c-0.658,4.467-1.023,10.268,2.039,13.957
									C67.233,376.282,67.411,376.17,67.371,376.046L67.371,376.046z"/>
							</g>
						</g>
						
							<path style="fill:none;stroke:#280606;stroke-width:1.5;stroke-linecap:round;stroke-linejoin:round;stroke-miterlimit:10;" d="
							M70.071,324.537c0.317,1.587-3.742,5.037-11.971,10.375c-8.356,5.421-10.749,18.674-9.505,24.552
							c1.243,5.878,5.991,7.573,8.251,6.669c0,0,4.069,8.251,9.042,7.234c0,0,1.469,7.008,7.799,6.104
							c6.33-0.904,16.051-30.745,17.181-31.762c1.13-1.017,10.173-3.73,9.721-8.364c0,0,5.538-1.922,5.538-8.025
							s-4.182-13.674-10.06-15.823c-5.878-2.149-7.347,2.711-7.46,4.633c0,0-5.991-2.939-9.495,2.035c0,0-3.278-3.73-3.278-10.512
							c0-6.782-2.939-13.112-9.495-10.399c-6.556,2.713-10.017,9.711-6.782,16.051C62.384,322.841,69.506,321.711,70.071,324.537z"
							/>
					</g>
				</g>
			</g>
			<g>
				<g>
					<path style="fill:#FF4142;" d="M284.322,80.377c0,0-79.858,5.509-123.671,99.739c-41.138,88.476-1.067,179.813,89.869,161.032
						c67.757-13.993,82.841-47.467,88.498-77.615c4.023-21.437-2.924-54.137-27.666-81.088
						c-28.38-30.913-44.685-41.375-44.836-65.953C266.365,92.039,284.322,80.377,284.322,80.377z"/>
					<path style="opacity:0.7;fill:#FFFFFF;" d="M197.973,150.235c-13.781-8.788,19.422-39.968,27.82-32.877
						C230.582,121.402,206.305,155.548,197.973,150.235z M162.023,217.188c5.687,4.054,24.265-31.423,29.496-45.396
						c5.561-14.857,5.684-23.828-6.931-15.319C171.973,164.982,152.786,210.603,162.023,217.188z"/>
					<path style="opacity:0.6;fill:#AB1F1F;" d="M339.018,263.534c4.023-21.437-2.924-54.137-27.666-81.088
						c-28.38-30.913-44.685-41.375-44.836-65.953c-0.151-24.455,17.807-36.117,17.807-36.117s-0.299,0.021-0.861,0.08
						c-23.26,13.684-40.412,53.075-21.264,81.938c21.641,32.621,48.222,45.709,52.882,88.815
						c4.66,43.106-43.759,91.123-109.467,79.024c-41.51-7.643-56.713-47.717-61.059-85.077
						c-1.862,62.176,37.732,110.083,105.966,95.992C318.277,327.156,333.361,293.681,339.018,263.534z"/>
					<g>
						<g>
							<path style="fill:#4C0909;" d="M284.322,79.627c-8.34,0.584-16.757,2.981-24.628,5.636
								c-19.59,6.608-37.7,17.332-53.227,30.95c-23.05,20.215-40.509,46.844-51.493,75.371
								c-10.193,26.473-14.498,56.039-8.56,84.023c4.872,22.961,17.299,44.616,37.609,57.148
								c24.06,14.847,52.715,13.254,79.046,6.203c24.929-6.676,49.896-18.708,64.129-41.172
								c11.08-17.487,15.794-39.715,12.486-60.106c-2.627-16.191-9.425-31.644-18.982-44.928
								c-10.327-14.356-23.884-26.155-35.772-39.171c-8.319-9.109-15.922-19.125-17.356-31.754
								c-1.511-13.302,2.66-26.71,12.012-36.366c1.555-1.606,3.236-3.207,5.115-4.436c0.805-0.526,0.054-1.826-0.757-1.295
								c-5.923,3.876-10.669,10.22-13.698,16.504c-5.396,11.196-6.084,24.96-1.47,36.552c4.64,11.656,14.009,20.897,22.565,29.76
								c12.796,13.255,26.289,26.062,35.272,42.349c7.427,13.464,12.212,28.702,12.685,44.133
								c0.314,10.271-1.79,20.515-5.041,30.227c-3.146,9.398-7.856,18.25-14.264,25.836c-7.84,9.281-17.852,16.425-28.673,21.84
								c-14.682,7.347-31.064,12.115-47.261,14.628c-13.353,2.072-27.194,1.865-40.257-1.799
								c-23.2-6.508-40.969-23.891-50.178-45.899c-10.432-24.932-10.34-53.368-4.193-79.352
								c7.264-30.704,23.016-60.144,44.178-83.519c15.386-16.995,34.186-30.86,55.255-39.969c10.71-4.631,22.221-8.343,33.854-9.73
								c0.534-0.064,1.069-0.126,1.605-0.164C285.28,81.06,285.287,79.56,284.322,79.627z"/>
						</g>
					</g>
				</g>
				<g>
					<path style="fill:#4C0909;" d="M201.329,223.737c-4.221-1.956-9.303-1.954-13.523,0.004c-4.22,1.958-7.502,5.837-8.734,10.324
						C179.072,234.065,193.17,224.765,201.329,223.737z"/>
					<path style="fill:#4C0909;" d="M253.297,211.876c-1.181-0.887-2.467-1.635-3.828-2.208c-6.864-2.892-15.52-0.712-20.196,5.087
						C229.273,214.754,243.776,211.88,253.297,211.876z"/>
					<g>
						<defs>
							<path id="SVGID_1_" d="M244.372,254.975c6.51-8.428,15.843-14.634,26.133-17.379c0,0-12.26-27.341-28.217-22.842
								C221.477,220.621,216.422,249.134,244.372,254.975z"/>
						</defs>
						<clipPath id="SVGID_00000152241567473548012000000017873983412529222321_">
							<use xlink:href="#SVGID_1_"  style="overflow:visible;"/>
						</clipPath>
						<g style="clip-path:url(#SVGID_00000152241567473548012000000017873983412529222321_);">
							
								<ellipse transform="matrix(0.7071 -0.7071 0.7071 0.7071 -94.033 241.4581)" style="fill:#FFFFFF;" cx="244.449" cy="234.237" rx="16.311" ry="16.311"/>
							<g>
								<defs>
									
										<ellipse id="SVGID_00000040544027069663048370000001779590381973121667_" transform="matrix(0.7071 -0.7071 0.7071 0.7071 -94.033 241.4581)" cx="244.449" cy="234.237" rx="16.311" ry="16.311"/>
								</defs>
								<clipPath id="SVGID_00000111152215742224433380000014775072798190495925_">
									<use xlink:href="#SVGID_00000040544027069663048370000001779590381973121667_"  style="overflow:visible;"/>
								</clipPath>
								<path style="clip-path:url(#SVGID_00000111152215742224433380000014775072798190495925_);fill:#4C0909;" d="
									M243.092,233.724l-6.324-1.399c0.528-4.344,3.609-8.146,8.091-9.367c5.91-1.61,12.006,1.875,13.616,7.785
									c1.61,5.91-1.875,12.006-7.785,13.616c-5.91,1.61-12.006-1.875-13.616-7.785c-0.161-0.593-0.258-1.186-0.32-1.778
									L243.092,233.724z"/>
							</g>
						</g>
						<g style="clip-path:url(#SVGID_00000152241567473548012000000017873983412529222321_);">
							<g>
								<path style="fill:#4C0909;" d="M228.51,237.011c-0.113-8.647,4.391-16.873,13.511-18.372
									c4.345-0.714,8.82,0.418,12.25,3.194c3.099,2.508,4.383,5.736,5.922,9.275c0.234,0.539,1.099,0.252,1.081-0.293
									c-0.139-4.212-3.311-8.28-6.581-10.698c-3.665-2.711-8.237-3.773-12.734-3.094c-9.144,1.381-16.705,10.739-13.863,20.044
									C228.164,237.29,228.513,237.255,228.51,237.011L228.51,237.011z"/>
							</g>
						</g>
					</g>
					<g>
						<defs>
							<path id="SVGID_00000029732938121255483290000008111361227317797307_" d="M178.008,262.29
								c10.291-2.739,21.475-1.999,31.315,2.073c0,0,14.995-9.791,8.24-26.766C210.808,220.621,172.469,227.415,178.008,262.29z"/>
						</defs>
						<clipPath id="SVGID_00000059989870646577352620000013225819703772243888_">
							<use xlink:href="#SVGID_00000029732938121255483290000008111361227317797307_"  style="overflow:visible;"/>
						</clipPath>
						<g style="clip-path:url(#SVGID_00000059989870646577352620000013225819703772243888_);">
							
								<ellipse transform="matrix(0.7071 -0.7071 0.7071 0.7071 -116.5992 212.9517)" style="fill:#FFFFFF;" cx="198.756" cy="247.224" rx="16.311" ry="16.311"/>
							<g>
								<defs>
									
										<ellipse id="SVGID_00000147217523198903126830000014361689246080006845_" transform="matrix(0.7071 -0.7071 0.7071 0.7071 -116.5992 212.9517)" cx="198.756" cy="247.224" rx="16.311" ry="16.311"/>
								</defs>
								<clipPath id="SVGID_00000021082987710543578090000017600753824592126393_">
									<use xlink:href="#SVGID_00000147217523198903126830000014361689246080006845_"  style="overflow:visible;"/>
								</clipPath>
								<path style="clip-path:url(#SVGID_00000021082987710543578090000017600753824592126393_);fill:#4C0909;" d="M197.398,246.71
									l-6.324-1.399c0.528-4.343,3.609-8.146,8.091-9.367c5.91-1.61,12.006,1.875,13.616,7.785
									c1.61,5.91-1.875,12.006-7.785,13.616c-5.91,1.61-12.006-1.875-13.616-7.785c-0.161-0.593-0.258-1.186-0.32-1.778
									L197.398,246.71z"/>
							</g>
						</g>
						<g style="clip-path:url(#SVGID_00000059989870646577352620000013225819703772243888_);">
							<g>
								<path style="fill:#4C0909;" d="M182.892,250.755c-0.113-8.647,4.391-16.873,13.511-18.372
									c4.345-0.714,8.82,0.418,12.25,3.194c3.099,2.508,4.383,5.736,5.922,9.275c0.234,0.539,1.099,0.252,1.081-0.293
									c-0.139-4.212-3.312-8.28-6.581-10.698c-3.665-2.711-8.237-3.773-12.734-3.094c-9.144,1.381-16.705,10.739-13.863,20.044
									C182.545,251.034,182.895,250.999,182.892,250.755L182.892,250.755z"/>
							</g>
						</g>
					</g>
					<g>
						<g>
							<path style="fill:#4C0909;" d="M182.329,261.682c4.038-0.527,8.284-0.56,12.335-0.19c5.113,0.467,9.593,2.193,14.506,3.424
								c0.622,0.156,1.019-0.72,0.442-1.049c-4.119-2.358-9.415-3.263-14.098-3.701c-4.53-0.424-8.84,0.002-13.272,0.872
								C181.885,261.108,181.961,261.73,182.329,261.682L182.329,261.682z"/>
						</g>
					</g>
					<g>
						<g>
							<path style="fill:#4C0909;" d="M244.604,255.207c3.141-3.684,6.783-7.091,10.779-9.828c3.57-2.446,7.566-3.833,11.271-5.975
								c0.576-0.333,0.184-1.192-0.442-1.049c-4.301,0.98-8.612,3.682-12.153,6.228c-3.958,2.846-7.132,6.295-9.97,10.227
								C243.872,255.109,244.363,255.49,244.604,255.207L244.604,255.207z"/>
						</g>
					</g>
					<g>
						<g>
							<path style="fill:#4C0909;" d="M263.092,275.369c0,0-8.401,29.895-38.551,24.062c-24.751-4.788-20.586-31.099-5.536-29.088
								c15.125,2.021,21.712-3.218,28.562-8.13C253.297,258.104,265.745,262.311,263.092,275.369z"/>
							<g>
								<path style="fill:#FF7178;" d="M242.65,281.488c0,0-2.34-2.958-5.851-1.907c-4.894,1.465-9.424,8.446-7.055,15.191
									c2.083,5.93,13.234,3.369,18.318-0.965c5.085-4.334,7.394-7.77,7.394-7.77s-0.604-9.463-6.055-8.444
									C245.211,278.375,242.65,281.488,242.65,281.488z"/>
								<g>
									
										<path style="fill:none;stroke:#AB1F1F;stroke-width:1.5;stroke-linecap:round;stroke-linejoin:round;stroke-miterlimit:10;" d="
										M242.65,281.488c0,0-2.34-2.958-5.851-1.907c-4.894,1.465-9.302,8.404-7.055,15.191c1.862,5.624,11.617,3.478,17.215-0.17
										c4.08-2.659,8.497-8.565,8.497-8.565s-0.604-9.463-6.055-8.444C245.211,278.375,242.65,281.488,242.65,281.488z"/>
									<g>
										<g>
											<path style="fill:#AB1F1F;" d="M240.995,289.668c-0.049-1.711,0.347-3.526,0.972-5.121
												c0.653-1.664,1.947-2.827,2.712-4.389c0.224-0.458-0.218-0.843-0.657-0.657c-3.626,1.535-4.376,6.928-3.878,10.283
												C240.215,290.27,241.009,290.149,240.995,289.668L240.995,289.668z"/>
										</g>
									</g>
								</g>
							</g>
						</g>
						<path style="fill:#FFFFFF;" d="M253.916,268.416c1.174-1.605-1.031-5.334-2.71-7.609c-1.346,0.196-2.603,0.663-3.64,1.406
							c-6.85,4.912-13.437,10.151-28.562,8.13c-1.52-0.203-2.923-0.105-4.202,0.218c-0.476,2.27-0.294,6.954,0.247,8.058
							C217.264,283.134,247.711,276.897,253.916,268.416z"/>
						<g>
							<g>
								<path style="fill:#4C0909;" d="M262.369,275.17c-1.433,5.048-4.358,9.959-7.777,13.887
									c-7.898,9.073-19.589,12.082-31.186,9.366c-5.502-1.289-10.912-4.148-13.822-9.176c-2.11-3.646-2.684-8.238-1.039-12.177
									c1.551-3.715,4.981-6.146,9.044-6.083c3.743,0.058,7.346,0.75,11.12,0.396c2.98-0.279,5.904-0.957,8.674-2.098
									c2.796-1.153,5.358-2.74,7.828-4.47c2.319-1.624,4.29-3.297,7.255-3.365C260.084,261.276,263.611,268.443,262.369,275.17
									c-0.174,0.944,1.271,1.348,1.446,0.399c1.078-5.838-0.542-11.997-6.344-14.587c-2.068-0.923-4.408-1.257-6.645-0.872
									c-2.682,0.462-4.622,2.203-6.797,3.707c-6.538,4.52-13.486,6.642-21.486,6.131c-5.049-0.323-9.632-1.02-13.318,3.207
									c-6.683,7.662-1.907,18.905,5.85,23.583c10.883,6.563,26.29,5.489,36.168-2.383c5.802-4.624,10.534-11.602,12.572-18.785
									C264.079,274.638,262.632,274.241,262.369,275.17z"/>
							</g>
						</g>
					</g>
				</g>
			</g>
			<g>
				<g>
					<path style="fill:#FFFFFF;" d="M383.306,257.035c0,0-7.177-3.559-3.216-7.987c3.961-4.427,15.612-7.689,24.233-4.427
						s3.567,9.24,3.567,9.24s7.617,0.755,11.811,4.379c4.194,3.624,8.621,11.351,8.155,18.206c-0.466,6.855-9.553,6.622-13.282,5.69
						c0,0-3.262,7.405-12.582,5.101c0,0-3.495,5.575-14.447,4.431c-10.951-1.144-12.349-10.231-12.349-10.231
						s-8.155,1.631-10.252-3.495c-2.097-5.126-0.742-12.116,2.563-15.146C371.958,258.717,383.306,257.035,383.306,257.035z"/>
					<path style="opacity:0.7;fill:#ABABB8;" d="M419.701,258.24c-4.194-3.624-11.811-4.379-11.811-4.379s5.054-5.977-3.567-9.239
						c-8.621-3.262-20.272,0-24.233,4.427c-2.956,3.303,0.289,6.122,2.127,7.341c0.158,0.041,0.248,0.062,0.248,0.062
						c-2.633-4.988,2.263-8.59,10.068-10.2c7.805-1.61,14.64,1.195,14.686,3.966c0.046,2.771-4.164,5.905-4.164,5.905
						c2.825,0.147,6.287-0.324,6.287-0.324s0,0,4.556,2.306s8.525,5.778,10.435,13.775c1.911,7.997-6.32,9.346-7.202,7.142
						c-0.882-2.205-3.876-4.093-3.876-4.093c2.003,8.841-7,10.56-8.177,6.591c-1.176-3.968-4.935-7.107-4.935-7.107
						c5.793,14.058-12.599,17.256-18.727,11.663c-6.128-5.593-0.882-11.023-0.882-11.023c2.079,1.05,5.408,4.997,5.408,4.997
						s1.353-4.85-2.909-8.17c-4.262-3.32-8.826,0.173-8.826,0.173c2.344,0.086,3.354,1.499,3.354,1.499s-2.17,1.354-3.052,3.412
						c-0.882,2.058-3.38,2.352-7.496,0c-1.96-1.12-2.42-5.241-2.364-9.25c-0.976,3.21-0.998,7.072,0.294,10.229
						c2.097,5.126,10.253,3.495,10.253,3.495s1.398,9.087,12.349,10.231c10.951,1.144,14.447-4.431,14.447-4.431
						c9.32,2.305,12.582-5.101,12.582-5.101c3.728,0.932,12.816,1.165,13.282-5.69C428.322,269.591,423.895,261.864,419.701,258.24z
						"/>
					<g>
						
							<path style="fill:none;stroke:#280606;stroke-width:1.5;stroke-linecap:round;stroke-linejoin:round;stroke-miterlimit:10;" d="
							M383.306,257.035c0,0-7.177-3.559-3.216-7.987c3.961-4.427,15.612-7.689,24.233-4.427s3.567,9.24,3.567,9.24
							s7.617,0.755,11.811,4.379c4.194,3.624,8.621,11.351,8.155,18.206c-0.466,6.855-9.553,6.622-13.282,5.69
							c0,0-3.262,7.405-12.582,5.101c0,0-3.495,5.575-14.447,4.431c-10.951-1.144-12.349-10.231-12.349-10.231
							s-8.155,1.631-10.252-3.495c-2.097-5.126-0.742-12.116,2.563-15.146C371.958,258.717,383.306,257.035,383.306,257.035z"/>
						<g>
							<g>
								<g>
									<path style="fill:#280606;" d="M402.927,256.52c1.786-0.359,3.249-0.751,4.731-1.869c1.019-0.769,2.138-1.855,2.304-3.177
										c0.027-0.215-0.143-0.476-0.328-0.572c-0.049-0.026-0.103-0.056-0.158-0.067c-0.223-0.045-0.486-0.014-0.645,0.171
										c-0.739,0.855-1.274,1.779-2.152,2.533c-1.082,0.928-2.563,1.899-3.942,2.294
										C402.291,255.958,402.479,256.61,402.927,256.52L402.927,256.52z"/>
								</g>
							</g>
							<g>
								<g>
									<path style="fill:#280606;" d="M388.026,257.804c-1.718-0.467-3.548-0.837-5.116-1.71
										c-0.723-0.403-1.373-0.898-1.905-1.534c-0.803-0.959-0.88-1.907-1.286-3.023c-0.192-0.529-0.91-0.548-1.096,0
										c-0.692,2.041,1.125,4.234,2.722,5.299c1.962,1.309,4.273,1.785,6.599,1.566
										C388.271,258.372,388.377,257.9,388.026,257.804L388.026,257.804z"/>
								</g>
							</g>
							<g>
								<g>
									<path style="fill:#280606;" d="M379.719,272.526c-2.9,1.544-7.736,8.17-4.131,11.108c0.248,0.202,0.695,0.093,0.68-0.282
										c-0.085-2.177-0.308-3.745,0.663-5.822c0.779-1.668,1.818-3.246,3.193-4.48
										C380.414,272.789,380.043,272.353,379.719,272.526L379.719,272.526z"/>
								</g>
							</g>
							<g>
								<g>
									<path style="fill:#280606;" d="M386.355,280.754c-0.946-2.998-1.876-6.069-4.47-8.083
										c-2.561-1.989-6.162-2.162-9.135-1.068c-0.691,0.254-0.617,1.31,0.179,1.324c2.992,0.051,5.991-0.586,8.493,1.546
										c1.977,1.685,3.148,4.271,4.151,6.611C385.765,281.53,386.5,281.212,386.355,280.754L386.355,280.754z"/>
								</g>
							</g>
							<g>
								<g>
									<path style="fill:#280606;" d="M399.028,273.828c1.879,2.112,3.17,4.826,3.274,7.674c0.085,2.317-1.08,4.185-1.223,6.379
										c-0.018,0.274,0.35,0.508,0.582,0.334c2.077-1.555,2.329-5.105,2.039-7.494c-0.368-3.031-1.814-5.492-4.116-7.449
										C399.2,272.947,398.689,273.447,399.028,273.828L399.028,273.828z"/>
								</g>
							</g>
							<g>
								<g>
									<path style="fill:#280606;" d="M411.649,273.175c1.077,1.483,1.773,3.216,2.077,5.025c0.305,1.818-0.116,3.57,0.012,5.378
										c0.017,0.238,0.337,0.435,0.52,0.215c2.715-3.25,0.447-8.427-2.177-10.952
										C411.866,272.633,411.459,272.913,411.649,273.175L411.649,273.175z"/>
								</g>
							</g>
						</g>
					</g>
				</g>
				<g>
					<path style="fill:#280606;" d="M395.345,251.253c-2.452,0-4.592-1.805-4.945-4.303c-0.046-0.326-5.169-33.022-21.429-33.564
						c-7.064-0.241-15.839,5.322-25.431,16.07c-7.705,8.633-12.987,17.412-13.04,17.5c-1.417,2.369-4.488,3.14-6.857,1.724
						c-2.37-1.418-3.142-4.488-1.724-6.858c0.234-0.391,5.829-9.689,14.16-19.024c11.797-13.218,22.99-19.767,33.225-19.405
						c24.882,0.829,30.76,40.475,30.998,42.162c0.386,2.734-1.519,5.264-4.253,5.649
						C395.813,251.236,395.578,251.253,395.345,251.253z"/>
				</g>
			</g>
		</g>
		<g>
			<g>
				
					<ellipse transform="matrix(0.9769 -0.2139 0.2139 0.9769 -18.8126 71.6536)" style="fill:#FF4142;" cx="321.723" cy="122.765" rx="16.821" ry="21.766"/>
				<path style="opacity:0.6;fill:#AB1F1F;" d="M329.608,136.513c-9.075,1.987-18.516-5.922-21.087-17.664
					c-0.872-3.985-0.823-7.889-0.047-11.399c-3.38,4.772-4.757,11.722-3.182,18.913c2.571,11.743,12.012,19.651,21.087,17.664
					c5.995-1.313,10.313-6.626,11.823-13.461C336.062,133.587,333.126,135.742,329.608,136.513z"/>
				<g>
					<g>
						<path style="fill:#4C0909;" d="M337.431,119.366c1.547,7.566,0.218,16.955-6.475,21.792
							c-6.112,4.417-13.819,2.173-18.711-2.923c-5.734-5.973-8.093-15.206-6.259-23.239c1.587-6.95,6.924-13.463,14.634-13.029
							C329.666,102.476,335.559,111.341,337.431,119.366c0.219,0.94,1.666,0.542,1.446-0.399
							c-1.86-7.972-7.251-16.217-15.715-18.143c-7.897-1.797-14.779,3.322-17.605,10.48c-3.36,8.511-1.554,18.945,4.017,26.119
							c4.681,6.028,12.71,9.804,20.061,6.262c8.991-4.332,11.058-15.836,9.242-24.717
							C338.684,118.022,337.238,118.422,337.431,119.366z"/>
					</g>
				</g>
				<path style="opacity:0.7;fill:#FFFFFF;" d="M322.791,107.74c-5.376,2.871,3.94,22.267,9.26,17.244
					C337.37,119.96,329.26,104.285,322.791,107.74z"/>
			</g>
			<g>
				<path style="fill:#AB1F1F;" d="M324.105,90.1c-9.056-5.689-2.754-18.264,5.218-12.031
					C337.296,84.302,335.411,97.203,324.105,90.1z"/>
				<path style="opacity:0.6;fill:#AB1F1F;" d="M333.647,84.106c-0.664,3.46-4.002,5.271-9.957,1.53
					c-1.976-1.241-3.22-2.81-3.876-4.44c-0.6,2.915,0.488,6.515,4.291,8.904C332.332,95.268,335.565,89.845,333.647,84.106z"/>
				<g>
					<g>
						<path style="fill:#4C0909;" d="M324.484,89.452c-3.222-2.147-5.405-6.324-3.22-10.007c2.243-3.78,6.477-2.138,8.952,0.445
							c2.13,2.221,3.946,5.852,3.004,8.996C331.957,93.102,327.061,91.012,324.484,89.452c-0.828-0.501-1.583,0.796-0.757,1.295
							c3.261,1.973,8.736,3.855,10.703-0.799c1.741-4.117-0.871-9.154-3.937-11.874c-3.218-2.855-8.058-3.572-10.524,0.613
							c-2.609,4.429-0.153,9.454,3.758,12.06C324.532,91.284,325.284,89.986,324.484,89.452z"/>
					</g>
				</g>
				<path style="opacity:0.5;fill:#FFFFFF;" d="M323.881,79.695c-1.615,1.71,4.274,6.693,5.794,4.581
					C331.194,82.165,325.495,77.986,323.881,79.695z"/>
			</g>
			<g>
				<path style="fill:#AB1F1F;" d="M295.656,92.615c-7.704,6.376,3.055,16.125,9.094,10.171
					C310.789,96.832,302.851,86.661,295.656,92.615z"/>
				<path style="opacity:0.6;fill:#AB1F1F;" d="M305.89,98.663c-4.353,4.292-11.156,0.424-11.731-4.457
					c-4.498,6.249,5.037,14.056,10.591,8.58c1.616-1.594,2.224-3.489,2.12-5.296C306.597,97.894,306.272,98.287,305.89,98.663z"/>
				<g>
					<g>
						<path style="fill:#4C0909;" d="M295.126,92.085c-3.249,2.839-3.875,7.186-0.875,10.487c2.57,2.827,6.981,3.827,10.189,1.46
							c3.472-2.562,4.167-7.39,1.631-10.849C303.297,89.398,298.641,89.343,295.126,92.085c-0.76,0.593,0.308,1.648,1.061,1.061
							c2.955-2.304,6.873-1.985,8.938,1.31c1.869,2.981,0.97,7.008-2.164,8.755c-2.573,1.434-5.777,0.404-7.65-1.7
							c-2.435-2.735-1.755-6.067,0.875-8.365C296.915,92.509,295.851,91.451,295.126,92.085z"/>
					</g>
				</g>
				<path style="opacity:0.3;fill:#FFFFFF;" d="M300.609,97.724c-4.559-1.406-2.957-6.34,1.425-4.35
					C306.416,95.363,305.169,99.129,300.609,97.724z"/>
			</g>
		</g>
		<g>
			<g>
				<ellipse style="fill:#FF4142;" cx="141.44" cy="134.175" rx="9.271" ry="10.33"/>
				<path style="opacity:0.6;fill:#AB1F1F;" d="M145.767,125.043c0.878,1.579,1.394,3.434,1.394,5.428
					c0,5.705-4.151,10.33-9.271,10.33c-1.564,0-3.035-0.436-4.327-1.197c1.635,2.938,4.546,4.902,7.877,4.902
					c5.12,0,9.271-4.625,9.271-10.33C150.711,130.212,148.706,126.775,145.767,125.043z"/>
				<g>
					<g>
						<path style="fill:#4C0909;" d="M149.961,134.175c-0.15,4.742-3.341,9.58-8.521,9.58c-5.063,0-8.521-4.836-8.521-9.58
							c0-4.631,3.28-9.358,8.19-9.567C146.431,124.382,149.807,129.312,149.961,134.175c0.03,0.963,1.531,0.967,1.5,0
							c-0.175-5.563-4.009-11.08-10.021-11.08c-5.881,0-10.021,5.513-10.021,11.08c0,5.568,4.139,11.08,10.021,11.08
							c6.013,0,9.845-5.516,10.021-11.08C151.491,133.209,149.991,133.21,149.961,134.175z"/>
					</g>
				</g>
				<path style="opacity:0.7;fill:#FFFFFF;" d="M137.354,128.062c-3.243-0.071-4.722,10.188-1.93,10.184
					C138.215,138.241,141.318,128.149,137.354,128.062z"/>
			</g>
			<g>
				<path style="fill:#AB1F1F;" d="M156.822,113.66c-6.897,7.781,2.735,19.678,8.141,12.412
					C170.37,118.807,163.263,106.394,156.822,113.66z"/>
				<path style="opacity:0.6;fill:#AB1F1F;" d="M166.289,122.496c-4.345,5.839-11.411-0.699-10.442-7.53
					c-4.876,7.716,4.004,17.976,9.116,11.106c0.961-1.292,1.52-2.747,1.765-4.225C166.592,122.067,166.447,122.284,166.289,122.496z
					"/>
				<g>
					<g>
						<path style="fill:#4C0909;" d="M156.292,113.13c-3.115,3.741-3.528,8.98-0.517,12.949c2.304,3.037,6.337,4.163,9.187,1.156
							c3.266-3.447,3.454-9.244,1.02-13.196C163.563,110.108,159.404,109.84,156.292,113.13c-0.663,0.701,0.396,1.764,1.061,1.061
							c2.723-2.879,5.952-2.178,7.701,1.267c1.683,3.314,1.474,7.926-1.152,10.717c-2.464,2.619-5.739,1.01-7.381-1.648
							c-2.05-3.319-1.637-7.371,0.832-10.336C157.966,113.454,156.911,112.387,156.292,113.13z"/>
					</g>
				</g>
				<path style="opacity:0.3;fill:#FFFFFF;" d="M160.58,114.306c-2.257,1.382,1.421,8.485,3.012,6.828
					C165.183,119.477,163.07,112.782,160.58,114.306z"/>
			</g>
		</g>
	</g>
</g>
</svg>
